<?xml version="1.0" encoding="UTF-8"?>
<svg version="1.1" xmlns="http://www.w3.org/2000/svg" width="1024" height="1024">
<path d="M0 0 C0.9178125 0.01289063 1.835625 0.02578125 2.78125 0.0390625 C3.6990625 0.02617187 4.616875 0.01328125 5.5625 0 C9.26938364 0.90541698 10.69069487 2.91035413 13.28125 5.6640625 C15.29758335 7.02667354 17.36712235 8.31208645 19.46875 9.5390625 C20.10111572 9.91071533 20.73348145 10.28236816 21.38500977 10.6652832 C23.67818582 12.00801392 25.9791679 13.33665946 28.28125 14.6640625 C29.22291016 15.20885254 30.16457031 15.75364258 31.13476562 16.31494141 C36.59497372 19.47341633 42.05983529 22.6237131 47.52734375 25.76953125 C53.79256983 29.37737872 60.03982004 33.01524246 66.28125 36.6640625 C77.82836688 43.41137674 89.41027261 50.09745702 100.99902344 56.77294922 C106.42784942 59.90086398 111.85444281 63.03264698 117.28125 66.1640625 C119.44790583 67.41408129 121.6145725 68.66408128 123.78125 69.9140625 C128.11458333 72.4140625 132.44791667 74.9140625 136.78125 77.4140625 C137.85391113 78.03289307 138.92657227 78.65172363 140.03173828 79.28930664 C142.19682071 80.53841768 144.36185982 81.78760379 146.52685547 83.03686523 C151.96740706 86.17608559 157.40872216 89.31396813 162.8515625 92.44921875 C173.30331199 98.47153579 183.74424548 104.51075587 194.15625 110.6015625 C202.83387241 115.67681373 211.54730568 120.68665017 220.28125 125.6640625 C230.00240617 131.2040798 239.69019658 136.79781059 249.34814453 142.44750977 C259.87209625 148.60172992 270.43505137 154.68776246 280.99902344 160.77294922 C286.42784942 163.90086398 291.85444281 167.03264698 297.28125 170.1640625 C299.44790583 171.41408129 301.6145725 172.66408128 303.78125 173.9140625 C342.78125001 196.41406251 342.78125001 196.41406251 346.03076172 198.28881836 C348.19901264 199.5397073 350.36730697 200.79052102 352.53564453 202.04125977 C357.92842915 205.15204585 363.32047093 208.26410488 368.7109375 211.37890625 C378.74567262 217.1755525 388.78684325 222.96006125 398.85400391 228.70019531 C403.51697864 231.35913203 408.17480818 234.02704529 412.83300781 236.69433594 C415.14793042 238.01668057 417.4643024 239.33584598 419.78417969 240.64941406 C423.12176615 242.5411215 426.45205458 244.44513707 429.78125 246.3515625 C430.78430176 246.91560791 431.78735352 247.47965332 432.82080078 248.06079102 C438.27372013 251.2012282 442.3892719 253.88010631 445.28125 259.6640625 C445.38169594 262.37261233 445.42048474 265.05560897 445.41547108 267.76455307 C445.41782331 268.61600352 445.42017554 269.46745396 445.42259905 270.34470594 C445.4293141 273.22914511 445.42883007 276.11353949 445.42842102 278.99798584 C445.43171808 281.07433588 445.43544332 283.15068528 445.4395625 285.22703385 C445.44960848 290.95732563 445.45330345 296.68760694 445.45595181 302.41790628 C445.45984716 308.58846389 445.46942598 314.75901314 445.47816467 320.92956543 C445.49701502 335.13812714 445.5071882 349.34668693 445.51562535 363.55525763 C445.51982947 370.57368613 445.52505176 377.59211378 445.53030988 384.61054156 C445.54820121 408.62628309 445.56319822 432.64202486 445.57063007 456.65777206 C445.57110483 458.1659503 445.57158072 459.67412854 445.57205774 461.18230678 C445.5724123 462.30420961 445.5724123 462.30420961 445.57277403 463.44877713 C445.57397525 467.23831236 445.57519069 471.02784759 445.57641602 474.81738281 C445.57665617 475.5694332 445.57689632 476.32148359 445.57714374 477.09632339 C445.58503871 501.48595384 445.60847402 525.8755357 445.64097196 550.26514493 C445.67525246 576.0395193 445.69497955 601.81386524 445.69827431 627.5882628 C445.69869187 630.41649009 445.69917143 633.24471737 445.69969749 636.07294464 C445.69982069 636.76935494 445.69994388 637.46576525 445.7000708 638.18327889 C445.70240503 649.40137605 445.71807738 660.61941687 445.73853934 671.83749393 C445.75877273 683.10889636 445.76395242 694.38023197 445.75476871 705.65165541 C445.75020882 711.76068585 445.75220806 717.86953295 445.77153015 723.97853851 C445.78905419 729.56715506 445.78825202 735.15545304 445.77263286 740.74407247 C445.77024036 742.76968188 445.77466457 744.79531273 445.78646151 746.8208892 C445.80147263 749.5677199 445.79198293 752.31340604 445.77623463 755.06020737 C445.78645683 755.85246369 445.79667904 756.64472002 445.80721101 757.46098411 C445.74218265 762.63358368 444.68028187 765.55197424 441.28125 769.6640625 C438.51049805 771.73413086 438.51049805 771.73413086 435.35546875 773.56640625 C434.78616135 773.9017186 434.21685394 774.23703094 433.6302948 774.58250427 C431.8548573 775.62343882 430.06919042 776.64478549 428.28125 777.6640625 C427.20439941 778.28941895 426.12754883 778.91477539 425.01806641 779.55908203 C421.71927957 781.46505889 418.40833308 783.34820387 415.09375 785.2265625 C412.62307403 786.63171727 410.15336894 788.03857523 407.68359375 789.4453125 C407.06349426 789.79823868 406.44339478 790.15116486 405.80450439 790.51478577 C399.57486915 794.06190306 393.3637478 797.64085914 387.15625 801.2265625 C386.09253174 801.84088135 385.02881348 802.4552002 383.93286133 803.08813477 C381.78815413 804.32698473 379.6435412 805.56599791 377.49902344 806.80517578 C372.09454355 809.92730855 366.68777588 813.04547454 361.28125 816.1640625 C359.1145725 817.41404372 356.94790583 818.66404371 354.78125 819.9140625 C237.78124999 887.41406251 237.78124999 887.41406251 234.53076172 889.28930664 C232.36567929 890.53841768 230.20064018 891.78760379 228.03564453 893.03686523 C222.59509294 896.17608559 217.15377784 899.31396813 211.7109375 902.44921875 C201.25918801 908.47153579 190.81825452 914.51075587 180.40625 920.6015625 C171.13625223 926.02327428 161.82293248 931.36611165 152.49279785 936.68328857 C143.3684216 941.88451379 134.27992226 947.14434128 125.21435547 952.44750977 C112.50764875 959.87816629 99.74562407 967.21292005 86.99023438 974.55957031 C74.42583608 981.79735055 61.87224007 989.05216817 49.35717773 996.375 C44.00005799 999.50645862 38.63128571 1002.61629514 33.24609375 1005.69921875 C32.06183672 1006.37823387 30.87759185 1007.05727018 29.69335938 1007.73632812 C27.43781248 1009.02947484 25.17970882 1010.31775171 22.91992188 1011.60351562 C13.38010556 1016.33130434 13.38010556 1016.33130434 6.28125 1023.6640625 C3.09375 1023.9765625 3.09375 1023.9765625 -0.71875 1023.6640625 C-1.84957031 1022.50550509 -2.97629055 1021.34265772 -4.08178711 1020.15991211 C-7.68761601 1016.86492126 -12.17777746 1014.68474372 -16.40625 1012.2890625 C-17.46134766 1011.68255859 -18.51644531 1011.07605469 -19.60351562 1010.45117188 C-21.83977022 1009.16634676 -24.07793712 1007.88484508 -26.31787109 1006.60644531 C-30.7118091 1004.09688531 -35.09391691 1001.56710077 -39.47583008 999.03662109 C-41.65084943 997.78070011 -43.82647556 996.52582942 -46.00268555 995.27197266 C-53.25526667 991.09292189 -60.49195941 986.88753476 -67.71875 982.6640625 C-79.26597486 975.91693136 -90.84777119 969.2306688 -102.43652344 962.55517578 C-107.86534942 959.42726102 -113.29194281 956.29547802 -118.71875 953.1640625 C-120.88540583 951.91404371 -123.0520725 950.66404372 -125.21875 949.4140625 C-138.21875 941.9140625 -151.21875 934.4140625 -164.21875 926.9140625 C-165.29141113 926.29523193 -166.36407227 925.67640137 -167.46923828 925.03881836 C-169.63432071 923.78970732 -171.79935982 922.54052121 -173.96435547 921.29125977 C-179.40490706 918.15203941 -184.84622216 915.01415687 -190.2890625 911.87890625 C-200.74081199 905.85658921 -211.18174548 899.81736913 -221.59375 893.7265625 C-230.27137241 888.65131127 -238.98480568 883.64147483 -247.71875 878.6640625 C-257.43990617 873.1240452 -267.12769658 867.53031441 -276.78564453 861.88061523 C-287.30959625 855.72639508 -297.87255137 849.64036254 -308.43652344 843.55517578 C-313.86534946 840.42726099 -319.29191556 837.29543087 -324.71875 834.1640625 C-326.32943359 833.2349707 -326.32943359 833.2349707 -327.97265625 832.28710938 C-333.36562516 829.17627917 -338.75781364 826.06411101 -344.1484375 822.94921875 C-354.77324922 816.81170996 -365.40823839 810.69313996 -376.06698608 804.61480713 C-386.48723192 798.67239799 -396.88419469 792.69254015 -407.22998047 786.62109375 C-411.89695996 783.8833432 -416.57424731 781.17119699 -421.29296875 778.5234375 C-422.16816162 778.02884033 -423.04335449 777.53424316 -423.94506836 777.0246582 C-425.56998528 776.10837294 -427.19940315 775.20000114 -428.83422852 774.30151367 C-433.71468969 771.53819492 -437.14561807 768.81032636 -439.71875 763.6640625 C-439.81919594 760.95551267 -439.85798474 758.27251603 -439.85297108 755.56357193 C-439.85532331 754.71212148 -439.85767554 753.86067104 -439.86009905 752.98341906 C-439.8668141 750.09897989 -439.86633007 747.21458551 -439.86592102 744.33013916 C-439.86921808 742.25378912 -439.87294332 740.17743972 -439.8770625 738.10109115 C-439.88710848 732.37079937 -439.89080345 726.64051806 -439.89345181 720.91021872 C-439.89734716 714.73966111 -439.90692598 708.56911186 -439.91566467 702.39855957 C-439.93451502 688.18999786 -439.9446882 673.98143807 -439.95312535 659.77286737 C-439.95732947 652.75443887 -439.96255176 645.73601122 -439.96780988 638.71758344 C-439.98570121 614.70184191 -440.00069822 590.68610014 -440.00813007 566.67035294 C-440.00860483 565.1621747 -440.00908072 563.65399646 -440.00955774 562.14581822 C-440.00979411 561.397883 -440.01003049 560.64994779 -440.01027403 559.87934787 C-440.01147525 556.08981264 -440.01269069 552.30027741 -440.01391602 548.51074219 C-440.01415617 547.7586918 -440.01439632 547.00664141 -440.01464374 546.23180161 C-440.02253871 521.84217116 -440.04597402 497.4525893 -440.07847196 473.06298007 C-440.11275246 447.2886057 -440.13247955 421.51425976 -440.13577431 395.7398622 C-440.13619187 392.91163491 -440.13667143 390.08340763 -440.13719749 387.25518036 C-440.13732069 386.55877006 -440.13744388 385.86235975 -440.1375708 385.14484611 C-440.13990503 373.92674895 -440.15557738 362.70870813 -440.17603934 351.49063107 C-440.19627273 340.21922864 -440.20145242 328.94789303 -440.19226871 317.67646959 C-440.18770882 311.56743915 -440.18970806 305.45859205 -440.20903015 299.34958649 C-440.22655419 293.76096994 -440.22575202 288.17267196 -440.21013286 282.58405253 C-440.20774036 280.55844312 -440.21216457 278.53281227 -440.22396151 276.5072358 C-440.23897263 273.7604051 -440.22948293 271.01471896 -440.21373463 268.26791763 C-440.22395683 267.47566131 -440.23417904 266.68340498 -440.24471101 265.86714089 C-440.17968265 260.69454132 -439.11778187 257.77615076 -435.71875 253.6640625 C-432.94799805 251.59399414 -432.94799805 251.59399414 -429.79296875 249.76171875 C-429.22366135 249.4264064 -428.65435394 249.09109406 -428.0677948 248.74562073 C-426.2923573 247.70468618 -424.50669042 246.68333951 -422.71875 245.6640625 C-421.64189941 245.03870605 -420.56504883 244.41334961 -419.45556641 243.76904297 C-416.15677917 241.86306589 -412.84584709 239.97989743 -409.53125 238.1015625 C-407.0579656 236.69511321 -404.58564155 235.2869792 -402.11328125 233.87890625 C-401.49276886 233.52577362 -400.87225647 233.17264099 -400.23294067 232.80880737 C-394.0466585 229.28631191 -387.88151317 225.7275232 -381.71875 222.1640625 C-373.28514547 217.28939923 -364.83659365 212.44179857 -356.37445068 207.61691284 C-346.10129056 201.75918687 -335.85910113 195.85153972 -325.65136719 189.88037109 C-315.12763681 183.72613261 -304.5647908 177.64027163 -294.00097656 171.55517578 C-288.57215058 168.42726102 -283.14555719 165.29547802 -277.71875 162.1640625 C-275.55209417 160.91404371 -273.3854275 159.66404372 -271.21875 158.4140625 C-270.14625 157.7953125 -269.07375 157.1765625 -267.96875 156.5390625 C-128.21875 75.9140625 -128.21875 75.9140625 -124.96826172 74.03881836 C-122.80317929 72.78970732 -120.63814018 71.54052121 -118.47314453 70.29125977 C-113.03259294 67.15203941 -107.59127784 64.01415687 -102.1484375 60.87890625 C-90.66482129 54.26215596 -79.19627199 47.62109777 -67.75512695 40.93115234 C-61.53572985 37.29751917 -55.30004035 33.6936306 -49.0534668 30.10693359 C-38.96860997 24.31169617 -28.91102528 18.47142103 -18.90625 12.5390625 C-17.85638916 11.92361572 -16.80652832 11.30816895 -15.72485352 10.67407227 C-9.8733608 7.26081196 -9.8733608 7.26081196 -4.86328125 2.7734375 C-2.71875 0.6640625 -2.71875 0.6640625 0 0 Z " fill="#449193" transform="translate(509.71875,-0.6640625)"/>
<path d="M0 0 C5.05567367 2.03508326 9.05634774 4.27866657 13 8 C14.89028328 12.96860697 14.76187267 17.82482184 14.65078735 23.06872559 C14.66577802 24.60854231 14.68643293 26.14831249 14.71224153 27.6879859 C14.76643645 31.90852508 14.73973879 36.12523626 14.69942069 40.34578776 C14.66998261 44.90097823 14.71541841 49.45551428 14.75115967 54.01057434 C14.80895524 62.92946966 14.79648761 71.84694261 14.75879534 80.76589358 C14.72943075 88.01451387 14.72545663 95.26273561 14.73960495 102.51139832 C14.74259299 104.05912238 14.74259299 104.05912238 14.7456414 105.63811359 C14.74979785 107.73425658 14.75401262 109.83039946 14.75828509 111.92654222 C14.79535183 131.58036345 14.75273905 151.23339632 14.68288033 170.88708824 C14.62479867 187.74950179 14.63488712 204.61075197 14.69482422 221.47314453 C14.76440125 241.05674535 14.79178132 260.63965529 14.75186479 280.22336245 C14.74772367 282.31177542 14.74363685 284.4001885 14.73960495 286.48860168 C14.73759937 287.51612922 14.73559379 288.54365675 14.73352743 289.60232148 C14.72230472 296.84191722 14.74124425 304.08107457 14.77183914 311.32060242 C14.80830851 320.14410227 14.79842168 328.96609898 14.72918947 337.78942668 C14.69502806 342.29145696 14.68162162 346.79098206 14.72462845 351.29299355 C14.76342225 355.41635423 14.7420303 359.53489395 14.67292027 363.65781766 C14.65841701 365.14756838 14.66575266 366.63772794 14.69730552 368.12721509 C14.78689008 372.70807755 14.64026522 376.6992426 13 381 C9.01345888 384.63006287 4.84784595 386.64115684 0 389 C-15.24649339 399.72930057 -26.0570544 414.73689702 -29.62890625 433.26171875 C-29.92574795 436.25200829 -30.03958328 439.07096997 -30.03515625 442.06640625 C-30.04385742 443.4131543 -30.04385742 443.4131543 -30.05273438 444.78710938 C-30.05925891 446.6413816 -30.03829706 448.49594866 -29.99023438 450.34960938 C-30.09850845 456.8978371 -30.09850845 456.8978371 -32.43896484 459.75927734 C-34.53900774 461.40187447 -36.67116619 462.70137402 -39 464 C-39.86246338 464.50861572 -40.72492676 465.01723145 -41.61352539 465.54125977 C-44.55194823 467.24050507 -47.52031426 468.87427304 -50.5 470.5 C-52.74186983 471.73910601 -54.98273106 472.98003836 -57.22265625 474.22265625 C-58.35461426 474.85059082 -59.48657227 475.47852539 -60.65283203 476.12548828 C-65.78493048 478.99961315 -70.86394988 481.96155804 -75.9375 484.9375 C-84.4180588 489.90932136 -92.91761111 494.84584473 -101.4375 499.75 C-108.58174331 503.86382802 -115.71611514 507.99161486 -122.8125 512.1875 C-128.86405708 515.7650945 -134.95357148 519.27132033 -141.0625 522.75 C-148.63054428 527.0597158 -156.16918071 531.41661674 -163.6875 535.8125 C-175.34089615 542.62529812 -187.02955681 549.37569484 -198.7265625 556.11328125 C-201.9647516 557.9796838 -205.20139438 559.84873763 -208.4375 561.71875 C-219.6093905 568.17333731 -230.79417172 574.6045474 -242 581 C-260.32253033 591.45821128 -278.59523001 602.00001188 -296.8059082 612.65185547 C-305.25182321 617.58297633 -313.7420674 622.43424652 -322.23898315 627.27667236 C-338.18089388 636.24023794 -338.18089388 636.24023794 -353.76953125 645.79296875 C-356 647 -356 647 -358.75 646.5 C-370.45 641.1 -370.45 641.1 -372 638 C-372.09949637 635.98707851 -372.13284703 633.9707904 -372.13701439 631.95541573 C-372.14208893 630.65807727 -372.14716347 629.36073881 -372.15239179 628.02408707 C-372.15299352 626.57067438 -372.15349258 625.11726164 -372.15390015 623.66384888 C-372.15791315 622.13054666 -372.1623511 620.59724551 -372.1671797 619.06394565 C-372.17916878 614.83480211 -372.18479903 610.60566998 -372.18936086 606.37651277 C-372.19530799 601.82154733 -372.20691991 597.26659561 -372.21765137 592.7116394 C-372.24219369 581.70457854 -372.25680411 570.69751313 -372.26971143 559.69043332 C-372.27342168 556.58355719 -372.27739504 553.4766815 -372.2814641 550.36980581 C-372.30669616 531.0914266 -372.32875709 511.8130467 -372.34119225 492.53465462 C-372.34412211 488.06753665 -372.34708375 483.6004187 -372.35009766 479.13330078 C-372.35084371 478.02297233 -372.35158976 476.91264388 -372.35235842 475.76866911 C-372.36502106 457.76864064 -372.39825546 439.76871074 -372.43989949 421.76872839 C-372.48226941 403.30424246 -372.50588145 384.83980707 -372.51111281 366.37527263 C-372.51453228 356.00167214 -372.52635058 345.62822577 -372.55921555 335.254673 C-372.58714922 326.42300595 -372.59824484 317.59152459 -372.58702008 308.75981678 C-372.58181646 304.25091565 -372.58483001 299.7424038 -372.60948563 295.23355865 C-372.63185115 291.10923298 -372.63133835 286.98557908 -372.61228175 282.86124264 C-372.60946379 281.36594264 -372.6151792 279.8705983 -372.63009469 278.37537004 C-372.64907848 276.34908715 -372.63447859 274.32257163 -372.61803246 272.29626656 C-372.62006725 270.60509954 -372.62006725 270.60509954 -372.62214315 268.87976754 C-371.79699911 265.06035233 -370.21278705 264.08688115 -367 262 C-365.45328948 261.07717272 -363.89036793 260.18097937 -362.3125 259.3125 C-351.63353527 252.99715385 -342.36784457 243.61307429 -336 233 C-348.21 232.67 -360.42 232.34 -373 232 C-373 271.93 -373 311.86 -373 353 C-390.49 353 -407.98 353 -426 353 C-426 258.62 -426 164.24 -426 67 C-370.23 67 -314.46 67 -257 67 C-257 81.00396769 -257.4170072 95.00817272 -258 109 C-296.28 109 -334.56 109 -374 109 C-374 135.73 -374 162.46 -374 190 C-358.16 190 -342.32 190 -326 190 C-326 188.35 -326 186.7 -326 185 C-324.53564453 183.35961914 -324.53564453 183.35961914 -322.5078125 181.97265625 C-321.77336914 181.46750488 -321.03892578 180.96235352 -320.28222656 180.44189453 C-316.88332347 178.2944917 -313.42242907 176.32776251 -309.875 174.4375 C-302.78520434 170.58168555 -295.80892974 166.56686955 -288.875 162.4375 C-280.60125785 157.5170493 -272.26875632 152.72693718 -263.86132812 148.03955078 C-260.6508355 146.24649233 -257.44844892 144.43944013 -254.25 142.625 C-253.14140625 141.99851562 -252.0328125 141.37203125 -250.890625 140.7265625 C-248.03875224 139.09669001 -248.03875224 139.09669001 -245.734375 137.2734375 C-244 136 -244 136 -242 136 C-241.98582031 135.22398437 -241.97164062 134.44796875 -241.95703125 133.6484375 C-241.12325489 114.7645296 -232.57483205 98.79374052 -219 86 C-200.09663725 69.16751126 -173.66190597 61.32502087 -148.67578125 62.19140625 C-147.75608047 62.21881897 -146.8363797 62.24623169 -145.8888092 62.2744751 C-142.07794043 62.39134155 -138.27015234 62.50957516 -134.46313477 62.7199707 C-119.60186773 63.50160401 -110.2176836 60.81652954 -97.96047974 52.32933044 C-95.16726406 50.43535186 -92.26575095 48.81952205 -89.3125 47.1875 C-82.99437702 43.58661173 -76.71571354 39.91995241 -70.4375 36.25 C-39.41409229 18.13808232 -39.41409229 18.13808232 -24.63110352 10.53100586 C-18.72414236 7.46536779 -13.16701091 4.03959185 -7.6640625 0.30078125 C-4.37570895 -1.30482246 -3.47251153 -0.97930515 0 0 Z " fill="#449294" transform="translate(913,317)"/>
<path d="M0 0 C3.97899538 0.34099631 6.85583286 1.84917918 10.26171875 3.8515625 C11.28458984 4.44775391 12.30746094 5.04394531 13.36132812 5.65820312 C14.45896484 6.30724609 15.55660156 6.95628906 16.6875 7.625 C17.84916922 8.30478918 19.01128693 8.98381248 20.17382812 9.66210938 C22.58817446 11.07158303 25.00055922 12.48432987 27.41162109 13.89941406 C32.92318583 17.13055521 38.4629938 20.31272995 44 23.5 C46.16679965 24.74976947 48.3334659 25.99977024 50.5 27.25 C51.5725 27.86875 52.645 28.4875 53.75 29.125 C58.625 31.9375 58.625 31.9375 63.5 34.75 C64.57266113 35.36883057 65.64532227 35.98766113 66.75048828 36.62524414 C68.91557071 37.87435518 71.08060982 39.12354129 73.24560547 40.37280273 C78.68615706 43.51202309 84.12747216 46.64990563 89.5703125 49.78515625 C103.13110509 57.5986886 116.66686512 65.4536897 130.17871094 73.3515625 C135.11748409 76.23721466 140.05891579 79.11830729 145 82 C145 76.72 145 71.44 145 66 C159.28427478 65.90656464 173.56847468 65.83586681 187.85299492 65.79275131 C194.48871192 65.77203893 201.12415999 65.74402703 207.75976562 65.69824219 C214.185406 65.65419284 220.61084499 65.63074065 227.03662491 65.62049103 C229.46574186 65.61320411 231.8948501 65.59898173 234.32387924 65.57707977 C265.0595887 65.31143124 299.52446452 68.23287899 324 89 C324.78117187 89.58394531 325.56234375 90.16789062 326.3671875 90.76953125 C339.97237521 102.2955879 347.78146906 119.56512986 350 137 C351.35777342 164.49491175 349.59851434 189.11548634 333 212 C331.77037968 213.27005271 330.5242096 214.52468784 329.25 215.75 C326.75602338 218.65514889 326.75602338 218.65514889 327.09375 221.28515625 C331.06651374 236.58502613 344.01326624 250.74904443 357.1640625 258.98046875 C359.26178271 260.1945431 361.37164963 261.38800682 363.49609375 262.5546875 C366 264 366 264 368 266 C368.251849 268.63021988 368.251849 268.63021988 368.25447559 272.04737759 C368.26030779 273.34533274 368.26613998 274.6432879 368.27214891 275.98057503 C368.26851513 277.43467724 368.26469072 278.88877898 368.26069641 280.34288025 C368.26371418 281.87689592 368.26760177 283.41091008 368.27228898 284.94492155 C368.28262609 289.17602216 368.28037272 293.40703858 368.27610838 297.63814628 C368.27365146 302.1951394 368.28264239 306.75211169 368.29014587 311.30909729 C368.30292379 320.24273139 368.30468273 329.17633548 368.30234561 338.10997718 C368.30056575 345.36820335 368.30230494 352.62642038 368.30657005 359.88464546 C368.30716524 360.91594269 368.30776043 361.94723993 368.30837366 363.00978859 C368.30958535 365.10457233 368.31079949 367.19935607 368.31201603 369.29413981 C368.32290347 388.95845106 368.32072338 408.62274518 368.31463119 428.28705741 C368.30946086 446.29420133 368.3207184 464.30129118 368.33972941 482.30842441 C368.35908041 500.77856003 368.36736863 519.24867003 368.36360615 537.71881586 C368.36168995 548.09624769 368.36422229 558.47363347 368.37832069 568.85105705 C368.39020065 577.68529071 368.39167761 586.51944999 368.37953053 595.3536846 C368.37361794 599.86438704 368.37260763 604.37495323 368.38453293 608.88564682 C368.39531152 613.01040447 368.39238512 617.13491077 368.37827124 621.25965626 C368.375602 622.75627506 368.37805988 624.25291306 368.38600711 625.74951314 C368.39602215 627.77524792 368.38595486 629.80105284 368.37473011 631.82678127 C368.37478513 632.95460567 368.37484014 634.08243007 368.37489682 635.24443096 C368 638 368 638 366.6047532 639.79915625 C364.68929705 641.23250036 362.76261287 642.4940413 360.6875 643.6875 C359.57955078 644.34298828 359.57955078 644.34298828 358.44921875 645.01171875 C354.73287368 646.51129659 351.84706403 646.77002047 348.07739258 645.19848633 C345.85995888 644.05465293 343.71202085 642.82932612 341.5625 641.5625 C340.76610107 641.10657471 339.96970215 640.65064941 339.14916992 640.1809082 C333.72896492 637.06208578 328.36520774 633.84751143 323.02197266 630.59887695 C317.39557679 627.19327247 311.67187801 623.96960092 305.9375 620.75 C297.2735259 615.8829668 288.69067877 610.89720352 280.15039062 605.81665039 C273.78517943 602.03630524 267.37581278 598.34178714 260.9375 594.6875 C254.25955539 590.89706621 247.66358915 587.02993051 241.1796875 582.9140625 C237.48989645 580.69293521 233.72155162 578.64794537 229.93505859 576.59716797 C225.22014708 574.03145917 220.54718499 571.39250799 215.875 568.75 C214.36860962 567.8981311 214.36860962 567.8981311 212.83178711 567.02905273 C204.9569432 562.56456935 197.14568857 558.00103617 189.35546875 553.39111328 C176.7319921 545.93583033 164.08252537 538.53913758 151.23461914 531.4765625 C145.9728348 528.57284816 140.81859124 525.52036156 135.68579102 522.39550781 C130.81710436 519.44824481 125.86255772 516.67791633 120.875 513.9375 C114.65471666 510.51689797 108.58358466 506.93505291 102.5625 503.171875 C97.28877017 499.91852084 91.87579053 496.90189066 86.48852539 493.84204102 C78.66403041 489.3934955 70.89194656 484.8590465 63.12866211 480.3046875 C57.94852828 477.27429871 52.74951173 474.28608294 47.5078125 471.36328125 C46.45835449 470.77732178 45.40889648 470.1913623 44.32763672 469.58764648 C42.32477523 468.47309204 40.31873733 467.36422028 38.30908203 466.26196289 C37.40786621 465.76043701 36.50665039 465.25891113 35.578125 464.7421875 C34.39331543 464.09032471 34.39331543 464.09032471 33.18457031 463.42529297 C30.71294098 461.81271228 28.86830322 460.29246562 27 458 C26.51757812 455.64086914 26.51757812 455.64086914 26.53125 453.03515625 C26.5144519 451.59716675 26.5144519 451.59716675 26.49731445 450.13012695 C26.4986438 448.61165161 26.4986438 448.61165161 26.5 447.0625 C26.29862742 437.9639921 25.62871273 430.43994527 22 422 C21.56558594 420.9790625 21.13117188 419.958125 20.68359375 418.90625 C17.3803948 411.77782067 13.20672428 405.86011713 8 400 C7.44570312 399.36320312 6.89140625 398.72640625 6.3203125 398.0703125 C0.54752815 391.8555925 -6.76956552 387.77385249 -14.125 383.6875 C-17 382 -17 382 -18 380 C-18.09943631 378.00791895 -18.13284512 376.01244208 -18.13701439 374.01788521 C-18.14208893 372.73448033 -18.14716347 371.45107546 -18.15239179 370.12877953 C-18.15299352 368.69108784 -18.15349258 367.2533961 -18.15390015 365.81570435 C-18.15791318 364.29890132 -18.16235113 362.78209937 -18.1671797 361.26529872 C-18.17916851 357.08176148 -18.18479896 352.89823579 -18.18936086 348.71468472 C-18.19530809 344.20879941 -18.20691999 339.70292797 -18.21765137 335.197052 C-18.24219345 324.30864262 -18.25680408 313.42022863 -18.26971143 302.53180009 C-18.2734217 299.45840014 -18.27739505 296.38500065 -18.2814641 293.31160116 C-18.30669618 274.24082545 -18.32875705 255.17004905 -18.34119225 236.09926033 C-18.34412211 231.68026858 -18.34708375 227.26127685 -18.35009766 222.84228516 C-18.35084371 221.74391916 -18.35158976 220.64555317 -18.35235842 219.51390336 C-18.36502101 201.70787016 -18.39825536 183.90193661 -18.43989949 166.09595002 C-18.48226977 147.83034626 -18.5058815 129.5647936 -18.51111281 111.29914081 C-18.51453224 101.03732229 -18.52635005 90.77565958 -18.55921555 80.51388931 C-18.58714972 71.77737602 -18.59824462 63.04105044 -18.58702008 54.30449595 C-18.58181659 49.84419959 -18.58482918 45.38429676 -18.60948563 40.92405701 C-18.63185218 36.84413909 -18.63133757 32.76490024 -18.61228175 28.68497144 C-18.60946393 27.20582197 -18.61517844 25.72662768 -18.63009469 24.24755074 C-18.64908034 22.24305206 -18.6344777 20.2383182 -18.61803246 18.23379707 C-18.62006725 16.56085663 -18.62006725 16.56085663 -18.62214315 14.85411942 C-17.79218655 11.04664319 -16.20683422 10.08178251 -13 8 C-11.12729612 6.9173026 -9.23078972 5.87470897 -7.3125 4.875 C-3.36922326 2.8302511 -3.36922326 2.8302511 0 0 Z " fill="#449294" transform="translate(116,317)"/>
<path d="M0 0 C0.9178125 0.01289063 1.835625 0.02578125 2.78125 0.0390625 C3.6990625 0.02617187 4.616875 0.01328125 5.5625 0 C9.26938364 0.90541698 10.69069487 2.91035413 13.28125 5.6640625 C15.29758335 7.02667354 17.36712235 8.31208645 19.46875 9.5390625 C20.10111572 9.91071533 20.73348145 10.28236816 21.38500977 10.6652832 C23.67818582 12.00801392 25.9791679 13.33665946 28.28125 14.6640625 C29.22291016 15.20885254 30.16457031 15.75364258 31.13476562 16.31494141 C36.59497372 19.47341633 42.05983529 22.6237131 47.52734375 25.76953125 C53.79256983 29.37737872 60.03982004 33.01524246 66.28125 36.6640625 C77.82836688 43.41137674 89.41027261 50.09745702 100.99902344 56.77294922 C106.42784942 59.90086398 111.85444281 63.03264698 117.28125 66.1640625 C119.44790583 67.41408129 121.6145725 68.66408128 123.78125 69.9140625 C128.11458333 72.4140625 132.44791667 74.9140625 136.78125 77.4140625 C137.85391113 78.03289307 138.92657227 78.65172363 140.03173828 79.28930664 C142.19682071 80.53841768 144.36185982 81.78760379 146.52685547 83.03686523 C151.96740706 86.17608559 157.40872216 89.31396813 162.8515625 92.44921875 C173.30331199 98.47153579 183.74424548 104.51075587 194.15625 110.6015625 C202.83387241 115.67681373 211.54730568 120.68665017 220.28125 125.6640625 C230.00240617 131.2040798 239.69019658 136.79781059 249.34814453 142.44750977 C259.87209625 148.60172992 270.43505137 154.68776246 280.99902344 160.77294922 C286.42784942 163.90086398 291.85444281 167.03264698 297.28125 170.1640625 C299.44790583 171.41408129 301.6145725 172.66408128 303.78125 173.9140625 C342.78125001 196.41406251 342.78125001 196.41406251 346.03076172 198.28881836 C348.19901264 199.5397073 350.36730697 200.79052102 352.53564453 202.04125977 C357.92842915 205.15204585 363.32047093 208.26410488 368.7109375 211.37890625 C378.74567262 217.1755525 388.78684325 222.96006125 398.85400391 228.70019531 C403.51697864 231.35913203 408.17480818 234.02704529 412.83300781 236.69433594 C415.14793042 238.01668057 417.4643024 239.33584598 419.78417969 240.64941406 C423.12176615 242.5411215 426.45205458 244.44513707 429.78125 246.3515625 C430.78430176 246.91560791 431.78735352 247.47965332 432.82080078 248.06079102 C438.27372013 251.2012282 442.3892719 253.88010631 445.28125 259.6640625 C445.38169594 262.37261233 445.42048474 265.05560897 445.41547108 267.76455307 C445.41782331 268.61600352 445.42017554 269.46745396 445.42259905 270.34470594 C445.4293141 273.22914511 445.42883007 276.11353949 445.42842102 278.99798584 C445.43171808 281.07433588 445.43544332 283.15068528 445.4395625 285.22703385 C445.44960848 290.95732563 445.45330345 296.68760694 445.45595181 302.41790628 C445.45984716 308.58846389 445.46942598 314.75901314 445.47816467 320.92956543 C445.49701502 335.13812714 445.5071882 349.34668693 445.51562535 363.55525763 C445.51982947 370.57368613 445.52505176 377.59211378 445.53030988 384.61054156 C445.54820121 408.62628309 445.56319822 432.64202486 445.57063007 456.65777206 C445.57110483 458.1659503 445.57158072 459.67412854 445.57205774 461.18230678 C445.5724123 462.30420961 445.5724123 462.30420961 445.57277403 463.44877713 C445.57397525 467.23831236 445.57519069 471.02784759 445.57641602 474.81738281 C445.57665617 475.5694332 445.57689632 476.32148359 445.57714374 477.09632339 C445.58503871 501.48595384 445.60847402 525.8755357 445.64097196 550.26514493 C445.67525246 576.0395193 445.69497955 601.81386524 445.69827431 627.5882628 C445.69869187 630.41649009 445.69917143 633.24471737 445.69969749 636.07294464 C445.69982069 636.76935494 445.69994388 637.46576525 445.7000708 638.18327889 C445.70240503 649.40137605 445.71807738 660.61941687 445.73853934 671.83749393 C445.75877273 683.10889636 445.76395242 694.38023197 445.75476871 705.65165541 C445.75020882 711.76068585 445.75220806 717.86953295 445.77153015 723.97853851 C445.78905419 729.56715506 445.78825202 735.15545304 445.77263286 740.74407247 C445.77024036 742.76968188 445.77466457 744.79531273 445.78646151 746.8208892 C445.80147263 749.5677199 445.79198293 752.31340604 445.77623463 755.06020737 C445.78645683 755.85246369 445.79667904 756.64472002 445.80721101 757.46098411 C445.74218265 762.63358368 444.68028187 765.55197424 441.28125 769.6640625 C438.51049805 771.73413086 438.51049805 771.73413086 435.35546875 773.56640625 C434.78616135 773.9017186 434.21685394 774.23703094 433.6302948 774.58250427 C431.8548573 775.62343882 430.06919042 776.64478549 428.28125 777.6640625 C427.20439941 778.28941895 426.12754883 778.91477539 425.01806641 779.55908203 C421.71927957 781.46505889 418.40833308 783.34820387 415.09375 785.2265625 C412.62307403 786.63171727 410.15336894 788.03857523 407.68359375 789.4453125 C407.06349426 789.79823868 406.44339478 790.15116486 405.80450439 790.51478577 C399.57486915 794.06190306 393.3637478 797.64085914 387.15625 801.2265625 C386.09253174 801.84088135 385.02881348 802.4552002 383.93286133 803.08813477 C381.78815413 804.32698473 379.6435412 805.56599791 377.49902344 806.80517578 C372.09454355 809.92730855 366.68777588 813.04547454 361.28125 816.1640625 C359.1145725 817.41404372 356.94790583 818.66404371 354.78125 819.9140625 C237.78124999 887.41406251 237.78124999 887.41406251 234.53076172 889.28930664 C232.36567929 890.53841768 230.20064018 891.78760379 228.03564453 893.03686523 C222.59509294 896.17608559 217.15377784 899.31396813 211.7109375 902.44921875 C201.25918801 908.47153579 190.81825452 914.51075587 180.40625 920.6015625 C171.13625223 926.02327428 161.82293248 931.36611165 152.49279785 936.68328857 C143.3684216 941.88451379 134.27992226 947.14434128 125.21435547 952.44750977 C112.50764875 959.87816629 99.74562407 967.21292005 86.99023438 974.55957031 C74.42583608 981.79735055 61.87224007 989.05216817 49.35717773 996.375 C44.00005799 999.50645862 38.63128571 1002.61629514 33.24609375 1005.69921875 C32.06183672 1006.37823387 30.87759185 1007.05727018 29.69335938 1007.73632812 C27.43781248 1009.02947484 25.17970882 1010.31775171 22.91992188 1011.60351562 C13.38010556 1016.33130434 13.38010556 1016.33130434 6.28125 1023.6640625 C3.09375 1023.9765625 3.09375 1023.9765625 -0.71875 1023.6640625 C-1.84957031 1022.50550509 -2.97629055 1021.34265772 -4.08178711 1020.15991211 C-7.68761601 1016.86492126 -12.17777746 1014.68474372 -16.40625 1012.2890625 C-17.46134766 1011.68255859 -18.51644531 1011.07605469 -19.60351562 1010.45117188 C-21.83977022 1009.16634676 -24.07793712 1007.88484508 -26.31787109 1006.60644531 C-30.7118091 1004.09688531 -35.09391691 1001.56710077 -39.47583008 999.03662109 C-41.65084943 997.78070011 -43.82647556 996.52582942 -46.00268555 995.27197266 C-53.25526667 991.09292189 -60.49195941 986.88753476 -67.71875 982.6640625 C-79.26597486 975.91693136 -90.84777119 969.2306688 -102.43652344 962.55517578 C-107.86534942 959.42726102 -113.29194281 956.29547802 -118.71875 953.1640625 C-120.88540583 951.91404371 -123.0520725 950.66404372 -125.21875 949.4140625 C-138.21875 941.9140625 -151.21875 934.4140625 -164.21875 926.9140625 C-165.29141113 926.29523193 -166.36407227 925.67640137 -167.46923828 925.03881836 C-169.63432071 923.78970732 -171.79935982 922.54052121 -173.96435547 921.29125977 C-179.40490706 918.15203941 -184.84622216 915.01415687 -190.2890625 911.87890625 C-200.74081199 905.85658921 -211.18174548 899.81736913 -221.59375 893.7265625 C-230.27137241 888.65131127 -238.98480568 883.64147483 -247.71875 878.6640625 C-257.43990617 873.1240452 -267.12769658 867.53031441 -276.78564453 861.88061523 C-287.30959625 855.72639508 -297.87255137 849.64036254 -308.43652344 843.55517578 C-313.86534946 840.42726099 -319.29191556 837.29543087 -324.71875 834.1640625 C-326.32943359 833.2349707 -326.32943359 833.2349707 -327.97265625 832.28710938 C-333.36562516 829.17627917 -338.75781364 826.06411101 -344.1484375 822.94921875 C-354.77324922 816.81170996 -365.40823839 810.69313996 -376.06698608 804.61480713 C-386.48723192 798.67239799 -396.88419469 792.69254015 -407.22998047 786.62109375 C-411.89695996 783.8833432 -416.57424731 781.17119699 -421.29296875 778.5234375 C-422.16816162 778.02884033 -423.04335449 777.53424316 -423.94506836 777.0246582 C-425.56998528 776.10837294 -427.19940315 775.20000114 -428.83422852 774.30151367 C-433.71468969 771.53819492 -437.14561807 768.81032636 -439.71875 763.6640625 C-439.81919594 760.95551267 -439.85798474 758.27251603 -439.85297108 755.56357193 C-439.85532331 754.71212148 -439.85767554 753.86067104 -439.86009905 752.98341906 C-439.8668141 750.09897989 -439.86633007 747.21458551 -439.86592102 744.33013916 C-439.86921808 742.25378912 -439.87294332 740.17743972 -439.8770625 738.10109115 C-439.88710848 732.37079937 -439.89080345 726.64051806 -439.89345181 720.91021872 C-439.89734716 714.73966111 -439.90692598 708.56911186 -439.91566467 702.39855957 C-439.93451502 688.18999786 -439.9446882 673.98143807 -439.95312535 659.77286737 C-439.95732947 652.75443887 -439.96255176 645.73601122 -439.96780988 638.71758344 C-439.98570121 614.70184191 -440.00069822 590.68610014 -440.00813007 566.67035294 C-440.00860483 565.1621747 -440.00908072 563.65399646 -440.00955774 562.14581822 C-440.00979411 561.397883 -440.01003049 560.64994779 -440.01027403 559.87934787 C-440.01147525 556.08981264 -440.01269069 552.30027741 -440.01391602 548.51074219 C-440.01415617 547.7586918 -440.01439632 547.00664141 -440.01464374 546.23180161 C-440.02253871 521.84217116 -440.04597402 497.4525893 -440.07847196 473.06298007 C-440.11275246 447.2886057 -440.13247955 421.51425976 -440.13577431 395.7398622 C-440.13619187 392.91163491 -440.13667143 390.08340763 -440.13719749 387.25518036 C-440.13732069 386.55877006 -440.13744388 385.86235975 -440.1375708 385.14484611 C-440.13990503 373.92674895 -440.15557738 362.70870813 -440.17603934 351.49063107 C-440.19627273 340.21922864 -440.20145242 328.94789303 -440.19226871 317.67646959 C-440.18770882 311.56743915 -440.18970806 305.45859205 -440.20903015 299.34958649 C-440.22655419 293.76096994 -440.22575202 288.17267196 -440.21013286 282.58405253 C-440.20774036 280.55844312 -440.21216457 278.53281227 -440.22396151 276.5072358 C-440.23897263 273.7604051 -440.22948293 271.01471896 -440.21373463 268.26791763 C-440.22395683 267.47566131 -440.23417904 266.68340498 -440.24471101 265.86714089 C-440.17968265 260.69454132 -439.11778187 257.77615076 -435.71875 253.6640625 C-432.94799805 251.59399414 -432.94799805 251.59399414 -429.79296875 249.76171875 C-429.22366135 249.4264064 -428.65435394 249.09109406 -428.0677948 248.74562073 C-426.2923573 247.70468618 -424.50669042 246.68333951 -422.71875 245.6640625 C-421.64189941 245.03870605 -420.56504883 244.41334961 -419.45556641 243.76904297 C-416.15677917 241.86306589 -412.84584709 239.97989743 -409.53125 238.1015625 C-407.0579656 236.69511321 -404.58564155 235.2869792 -402.11328125 233.87890625 C-401.49276886 233.52577362 -400.87225647 233.17264099 -400.23294067 232.80880737 C-394.0466585 229.28631191 -387.88151317 225.7275232 -381.71875 222.1640625 C-373.28514547 217.28939923 -364.83659365 212.44179857 -356.37445068 207.61691284 C-346.10129056 201.75918687 -335.85910113 195.85153972 -325.65136719 189.88037109 C-315.12763681 183.72613261 -304.5647908 177.64027163 -294.00097656 171.55517578 C-288.57215058 168.42726102 -283.14555719 165.29547802 -277.71875 162.1640625 C-275.55209417 160.91404371 -273.3854275 159.66404372 -271.21875 158.4140625 C-270.14625 157.7953125 -269.07375 157.1765625 -267.96875 156.5390625 C-128.21875 75.9140625 -128.21875 75.9140625 -124.96826172 74.03881836 C-122.80317929 72.78970732 -120.63814018 71.54052121 -118.47314453 70.29125977 C-113.03259294 67.15203941 -107.59127784 64.01415687 -102.1484375 60.87890625 C-90.66482129 54.26215596 -79.19627199 47.62109777 -67.75512695 40.93115234 C-61.53572985 37.29751917 -55.30004035 33.6936306 -49.0534668 30.10693359 C-38.96860997 24.31169617 -28.91102528 18.47142103 -18.90625 12.5390625 C-17.85638916 11.92361572 -16.80652832 11.30816895 -15.72485352 10.67407227 C-9.8733608 7.26081196 -9.8733608 7.26081196 -4.86328125 2.7734375 C-2.71875 0.6640625 -2.71875 0.6640625 0 0 Z M33.83789062 62.46875 C31.67203135 63.58156066 29.48839292 64.63552271 27.28125 65.6640625 C26.48203125 66.03901855 25.6828125 66.41397461 24.859375 66.80029297 C16.72616813 70.20386324 8.8179613 70.37178575 0.15625 70.2890625 C-0.57253357 70.28741089 -1.30131714 70.28575928 -2.05218506 70.28405762 C-13.91992162 70.2220851 -25.28803332 69.34801265 -35.44824219 62.49804688 C-38.58886932 60.42749492 -40.25133303 59.6090075 -44.03515625 60.0546875 C-48.87193675 61.89752639 -53.25710197 64.72354388 -57.65625 67.4140625 C-59.61543473 68.59189583 -61.57508712 69.76895153 -63.53515625 70.9453125 C-64.54852051 71.55632812 -65.56188477 72.16734375 -66.60595703 72.796875 C-71.74360277 75.87865654 -76.91733873 78.89798628 -82.09375 81.9140625 C-83.11001465 82.50662842 -84.1262793 83.09919434 -85.17333984 83.7097168 C-92.58367255 88.02226771 -100.03486142 92.25456175 -107.52050781 96.43457031 C-119.54292391 103.15879149 -131.54189277 109.91900587 -143.39331055 116.94091797 C-148.72043358 120.09228016 -154.08810904 123.16762437 -159.46875 126.2265625 C-168.0286592 131.09797112 -176.53817105 136.05243568 -185.03125 141.0390625 C-185.64919434 141.40175232 -186.26713867 141.76444214 -186.90380859 142.13812256 C-192.25443277 145.27866842 -197.60399988 148.42101219 -202.95263672 151.56494141 C-215.18018618 158.74768009 -227.47032805 165.79622171 -239.85864258 172.69824219 C-246.32821125 176.30807766 -252.74842752 179.98505188 -259.11889648 183.76660156 C-265.61972258 187.62229623 -272.16805199 191.39384971 -278.71875 195.1640625 C-285.86344541 199.27725892 -293.00047404 203.40027126 -300.09375 207.6015625 C-307.58853344 212.03786866 -315.15248809 216.3513654 -322.71875 220.6640625 C-330.65706601 225.18964698 -338.59191147 229.71940333 -346.46875 234.3515625 C-347.10425781 234.72474609 -347.73976563 235.09792969 -348.39453125 235.48242188 C-351.63061839 237.39401978 -354.84567723 239.3391237 -358.046875 241.30859375 C-359.02769043 241.91151245 -359.02769043 241.91151245 -360.02832031 242.52661133 C-361.86973766 243.68710983 -361.86973766 243.68710983 -363.71875 245.6640625 C-364.2986562 248.88754111 -364.27428751 252.14469459 -364.34375 255.4140625 C-364.40175781 256.30867187 -364.45976562 257.20328125 -364.51953125 258.125 C-364.6173937 263.12494812 -364.6173937 263.12494812 -362.31762695 267.40307617 C-360.20709908 269.05632756 -358.06066937 270.35778179 -355.71875 271.6640625 C-354.80802734 272.19950684 -353.89730469 272.73495117 -352.95898438 273.28662109 C-349.88147804 275.06222256 -346.77478913 276.77414996 -343.65625 278.4765625 C-329.65194174 286.21461503 -329.65194174 286.21461503 -323.09375 290.2265625 C-316.88359548 294.01961781 -310.5628202 297.60008127 -304.21875 301.1640625 C-297.36246474 305.01718149 -290.55723226 308.91849801 -283.83837891 313.0065918 C-277.32376383 316.94539587 -270.70629889 320.70555156 -264.09375 324.4765625 C-263.48204956 324.82547546 -262.87034912 325.17438843 -262.2401123 325.53387451 C-257.11719072 328.45516397 -251.99183236 331.37215838 -246.86474609 334.28613281 C-235.34674799 340.83265959 -223.89314317 347.48170337 -212.47537231 354.20111084 C-203.22991124 359.63997392 -193.9392447 364.98793955 -184.56494141 370.20288086 C-177.47188232 374.16799946 -170.66200913 378.39128765 -163.71875 382.6640625 C-205.79375 383.1590625 -205.79375 383.1590625 -248.71875 383.6640625 C-248.71875 388.9440625 -248.71875 394.2240625 -248.71875 399.6640625 C-252.55254932 397.45653612 -256.38598555 395.24838473 -260.21875 393.0390625 C-261.09808197 392.53220413 -261.09808197 392.53220413 -261.99517822 392.0151062 C-270.21021796 387.2785557 -278.4091978 382.51566151 -286.59375 377.7265625 C-295.27130715 372.65120058 -303.9848067 367.64147425 -312.71875 362.6640625 C-322.43106408 357.12908424 -332.1101757 351.540664 -341.75927734 345.89599609 C-351.4351694 340.23760799 -361.13943542 334.6292326 -370.859375 329.046875 C-374.3677382 327.02973472 -377.8602867 324.99224977 -381.328125 322.90625 C-381.98087402 322.51808105 -382.63362305 322.12991211 -383.30615234 321.72998047 C-384.93580414 320.75824327 -386.55815891 319.77429506 -388.1796875 318.7890625 C-390.56951977 317.49471121 -390.56951977 317.49471121 -392.765625 317.80078125 C-395.16760254 318.86245532 -397.35618876 320.09986984 -399.59375 321.4765625 C-400.90279297 322.2809375 -400.90279297 322.2809375 -402.23828125 323.1015625 C-407.2347946 326.05054841 -407.2347946 326.05054841 -411.71875 329.6640625 C-411.82010382 331.61496621 -411.8498384 333.56959726 -411.85297108 335.52312946 C-411.85742892 336.80454329 -411.86188676 338.08595711 -411.86647969 339.40620166 C-411.86639038 340.84683566 -411.8662005 342.28746966 -411.86592102 343.72810364 C-411.86921766 345.24404342 -411.87294279 346.75998232 -411.8770625 348.27592009 C-411.88711345 352.46171877 -411.89080424 356.64750311 -411.89345181 360.83331215 C-411.89734572 365.33989522 -411.90692466 369.84646682 -411.91566467 374.3530426 C-411.93545494 385.24632219 -411.94549851 396.13960275 -411.95439246 407.03289583 C-411.95877115 412.15731923 -411.96413904 417.28174159 -411.96938133 422.40616417 C-411.98639614 439.43166419 -412.00089158 456.45716356 -412.00813007 473.48267078 C-412.0100401 477.90389316 -412.01196042 482.32511553 -412.01391602 486.74633789 C-412.01439976 487.84526938 -412.0148835 488.94420088 -412.0153819 490.07643332 C-412.02368689 507.88897999 -412.04903059 525.7014596 -412.08149669 543.51397697 C-412.11452646 561.7840698 -412.13257513 580.0541285 -412.13577431 598.32425135 C-412.1379432 608.58941248 -412.14674698 618.85447582 -412.17223549 629.11960793 C-412.19388681 637.85978898 -412.20202047 646.59984853 -412.19226871 655.34005336 C-412.18770777 659.802313 -412.18971365 664.26432164 -412.20903015 668.72654724 C-412.2265475 672.80827687 -412.22575808 676.88957026 -412.21013286 680.97130378 C-412.20773927 682.45115209 -412.2121702 683.93102971 -412.22396151 685.41083298 C-412.23895696 687.41632619 -412.22708285 689.42196726 -412.21373463 691.42747211 C-412.21471144 692.54330781 -412.21568824 693.65914351 -412.21669465 694.80879241 C-411.60344772 698.3252186 -410.46039339 699.45740212 -407.71875 701.6640625 C-405.68991323 702.93123136 -405.68991323 702.93123136 -403.53125 703.9765625 C-398.46960828 706.69438983 -394.09704128 709.95624756 -389.71875 713.6640625 C-389.12320313 714.16292969 -388.52765625 714.66179688 -387.9140625 715.17578125 C-377.60705502 724.60408072 -370.03851442 738.97216303 -367.71875 752.6640625 C-367.65424607 754.432573 -367.63289923 756.20303801 -367.6484375 757.97265625 C-367.638125 758.96716797 -367.6278125 759.96167969 -367.6171875 760.98632812 C-367.60159222 763.05920085 -367.60931935 765.13238314 -367.640625 767.20507812 C-367.59243791 772.57468617 -367.59243791 772.57468617 -365.60351562 777.4440918 C-359.99731877 782.68001808 -352.21028159 786.00296184 -345.46875 789.6015625 C-342.93982117 790.95954762 -340.41386815 792.32288606 -337.890625 793.69140625 C-337.27837067 794.02314346 -336.66611633 794.35488068 -336.03530884 794.69667053 C-331.25046934 797.3148636 -326.64303132 800.15972962 -322.08251953 803.15380859 C-318.85155839 805.21812646 -315.49497847 807.00262346 -312.1171875 808.8125 C-300.6703167 815.04907099 -289.39175025 821.60370106 -278.25097656 828.37036133 C-273.47150815 831.25508403 -268.6093114 833.97278548 -263.71875 836.6640625 C-257.76405404 839.94167083 -251.90368248 843.31883528 -246.09667969 846.85205078 C-239.45623201 850.86692528 -232.71047317 854.69783004 -225.96875 858.5390625 C-225.35594177 858.88831787 -224.74313354 859.23757324 -224.11175537 859.59741211 C-222.88016301 860.29932612 -221.64856515 861.00123049 -220.41696167 861.703125 C-219.81530182 862.04601562 -219.21364197 862.38890625 -218.59375 862.7421875 C-217.9965213 863.0825 -217.3992926 863.4228125 -216.78396606 863.7734375 C-208.73725397 868.36066324 -200.72429178 873.00547039 -192.71875 877.6640625 C-191.73825684 878.23431152 -190.75776367 878.80456055 -189.74755859 879.39208984 C-186.54981333 881.25247988 -183.35286606 883.11423295 -180.15625 884.9765625 C-178.67463379 885.83918701 -178.67463379 885.83918701 -177.16308594 886.71923828 C-172.53351194 889.41943144 -167.91771038 892.13855616 -163.328125 894.90625 C-160.10239098 896.84795708 -156.86206636 898.71909658 -153.53125 900.4765625 C-148.40628598 903.23838894 -143.42308586 906.20088963 -138.46020508 909.24145508 C-133.94148154 911.99152247 -129.32376732 914.52489844 -124.67285156 917.04394531 C-119.51394286 919.87324433 -114.43300004 922.83686684 -109.34375 925.7890625 C-107.03929045 927.12279222 -104.73466534 928.45622936 -102.4296875 929.7890625 C-100.7276416 930.77326172 -100.7276416 930.77326172 -98.99121094 931.77734375 C-94.32743525 934.46621711 -89.64818969 937.12758076 -84.96875 939.7890625 C-76.67995179 944.50780605 -68.4570535 949.33254593 -60.26269531 954.21337891 C-58.56544529 955.22258053 -56.86534047 956.22699995 -55.16210938 957.22607422 C-53.52960479 958.1868508 -51.90581289 959.16258326 -50.29101562 960.15283203 C-44.42874284 963.63896786 -44.42874284 963.63896786 -37.71875 963.6640625 C-34.72032823 962.47490239 -34.72032823 962.47490239 -31.90625 960.7890625 C-30.47345703 959.98855469 -30.47345703 959.98855469 -29.01171875 959.171875 C-26.61191192 957.86839741 -26.61191192 957.86839741 -25.71875 955.6640625 C-25.62101098 953.65016433 -25.58955098 951.63295221 -25.58732224 949.61668491 C-25.58348109 948.31872976 -25.57963995 947.0207746 -25.5756824 945.68348747 C-25.57646274 944.22938568 -25.57734154 942.77528393 -25.57830811 941.32118225 C-25.57572603 939.78716772 -25.57271331 938.25315386 -25.5693047 936.71914095 C-25.5612131 932.48806266 -25.55944394 928.25700132 -25.55870724 924.02591622 C-25.55686046 919.46892789 -25.5493151 914.91194843 -25.54257202 910.35496521 C-25.5289735 900.38412703 -25.5229618 890.41329286 -25.51856136 880.44244695 C-25.51580187 874.22143611 -25.5115651 868.00042683 -25.50705719 861.77941704 C-25.49486323 844.56858066 -25.48456372 827.35774555 -25.4811821 810.14690495 C-25.48096253 809.04477849 -25.48074297 807.94265203 -25.48051675 806.8071278 C-25.48029847 805.70230973 -25.48008019 804.59749165 -25.4798553 803.45919424 C-25.47941183 801.22027337 -25.47896526 798.98135251 -25.47851562 796.74243164 C-25.4782942 795.63184088 -25.47807277 794.52125012 -25.47784463 793.37700509 C-25.47389419 775.36986408 -25.45643324 757.36276348 -25.4331561 739.35563809 C-25.40947234 720.88550599 -25.39698163 702.41539418 -25.39581418 683.94524664 C-25.39489581 673.56781053 -25.38910291 663.19042709 -25.37099457 652.81300545 C-25.35563376 643.97877689 -25.35044928 635.14461727 -25.35873267 626.3103779 C-25.36265332 621.79967187 -25.36164106 617.28910482 -25.34767532 612.77841568 C-25.33502077 608.65366408 -25.33605876 604.5291571 -25.34826604 600.40440624 C-25.35023779 598.90778498 -25.34707717 597.41114689 -25.33842167 595.91454936 C-25.32744255 593.88882114 -25.33654899 591.8630132 -25.3468132 589.83728123 C-25.34621611 588.70945683 -25.34561903 587.58163243 -25.34500384 586.41963154 C-25.48858631 583.65656031 -25.48858631 583.65656031 -27.09966207 581.8544082 C-29.17287762 580.33019004 -31.33778072 579.2807408 -33.65625 578.1640625 C-40.74053972 574.39203009 -46.08064073 569.28599355 -51.71875 563.6640625 C-52.74162109 562.67599609 -52.74162109 562.67599609 -53.78515625 561.66796875 C-59.48451255 555.73910817 -66.54047673 545.08404631 -66.71875 536.6640625 C-65.05859375 534.12109375 -65.05859375 534.12109375 -62.65625 531.4765625 C-56.21313795 523.96624768 -51.87418572 516.674768 -48.46875 507.4140625 C-48.22229736 506.75970215 -47.97584473 506.1053418 -47.72192383 505.43115234 C-43.42957003 493.07783825 -43.44331401 480.19249626 -43.59375 467.2890625 C-43.60381534 465.76302681 -43.61293482 464.23698458 -43.62109375 462.7109375 C-43.64279024 459.02850636 -43.67711714 455.34632874 -43.71875 451.6640625 C-42.32462891 451.47457031 -42.32462891 451.47457031 -40.90234375 451.28125 C-37.05650548 450.53567645 -34.92204004 448.88675355 -31.71875 446.6640625 C-29.40875 445.6740625 -27.09875 444.6840625 -24.71875 443.6640625 C-24.38875 518.5740625 -24.05875 593.4840625 -23.71875 670.6640625 C-5.89875 670.6640625 11.92125 670.6640625 30.28125 670.6640625 C30.28125 630.7340625 30.28125 590.8040625 30.28125 549.6640625 C42.49125 549.9940625 54.70125 550.3240625 67.28125 550.6640625 C58.4486749 562.80885326 51.08388494 571.11893595 38.28125 578.6640625 C34.59300376 580.92501083 34.59300376 580.92501083 31.28125 583.6640625 C31.17986218 585.63581 31.15016087 587.61124896 31.14702892 589.58559895 C31.14034216 591.52862006 31.14034216 591.52862006 31.13352031 593.51089412 C31.13360962 594.96724912 31.1337995 596.42360413 31.13407898 597.87995911 C31.13078235 599.41239808 31.12705722 600.94483618 31.1229375 602.47727317 C31.11288644 606.70867813 31.10919574 610.9400689 31.10654819 615.17148411 C31.10265431 619.72714732 31.09307537 624.2827992 31.08433533 628.8384552 C31.06454498 639.85038623 31.05450148 650.86231822 31.04560754 661.8742626 C31.04122887 667.05447308 31.03586097 672.23468253 31.03061867 677.4148922 C31.01360386 694.62568481 30.99910841 711.83647677 30.99186993 729.0472765 C30.9899599 733.51662509 30.98803958 737.98597369 30.98608398 742.45532227 C30.98560024 743.56621622 30.9851165 744.67711017 30.9846181 745.82166757 C30.97631307 763.82820969 30.95096929 781.83468547 30.91850331 799.8411986 C30.88547382 818.3101736 30.8674249 836.77911484 30.86422569 855.24811953 C30.86205677 865.62506291 30.85325263 876.00190956 30.82776451 886.37882423 C30.80611358 895.21415923 30.79797933 904.04937401 30.80773129 912.88473252 C30.81229234 917.39559753 30.8102857 921.90621425 30.79096985 926.41704559 C30.77345331 930.54318382 30.77424127 934.66889051 30.78986714 938.79503258 C30.79226085 940.29103147 30.78782919 941.78705934 30.77603849 943.28301368 C30.76104451 945.31029075 30.77291643 947.33771406 30.78626537 949.36500263 C30.78480016 951.05698276 30.78480016 951.05698276 30.78330535 952.7831443 C31.39588534 956.32729894 32.51675538 957.44188897 35.28125 959.6640625 C37.66054949 961.25728333 37.66054949 961.25728333 40.21875 962.5390625 C41.05277344 962.99023438 41.88679688 963.44140625 42.74609375 963.90625 C47.18782207 965.23397773 50.25138256 962.69668239 54.109375 960.6328125 C55.58541286 959.81363165 57.05925316 958.99048268 58.53125 958.1640625 C59.32917969 957.71828857 60.12710937 957.27251465 60.94921875 956.81323242 C66.7897084 953.53603034 72.57508351 950.17235279 78.33666992 946.75878906 C84.81009468 942.92669725 91.32423811 939.16711191 97.84375 935.4140625 C106.29795244 930.54638015 114.73646317 925.65351987 123.15625 920.7265625 C132.97254076 914.98636962 142.83590648 909.33082825 152.71386719 903.69775391 C163.85277504 897.34482355 174.9605758 890.93859619 186.06347656 884.52294922 C191.46795649 881.40081643 196.87475107 878.28269724 202.28125 875.1640625 C203.35246094 874.54595703 204.42367187 873.92785156 205.52734375 873.29101562 C210.96771075 870.15183876 216.40887955 867.01406621 221.8515625 863.87890625 C232.40856712 857.79584757 242.95329409 851.69369951 253.46875 845.5390625 C262.35725145 840.33696548 271.30415867 835.24732674 280.28125 830.19995117 C285.9697321 826.99381375 291.59244316 823.7107151 297.17041016 820.31591797 C303.61737003 816.41650509 310.1716632 812.70423434 316.71875 808.9765625 C326.89437454 803.18276466 337.03641663 797.3364317 347.13916016 791.41601562 C351.33719064 788.95744519 355.53725372 786.50656437 359.77734375 784.12109375 C360.43428223 783.75113281 361.0912207 783.38117187 361.76806641 783 C363.43259009 782.06690515 365.10086594 781.14051171 366.76953125 780.21484375 C369.06500965 778.79757326 370.59422655 777.73993674 372.28125 775.6640625 C372.75130412 773.51506625 372.75130412 773.51506625 372.72265625 771.12890625 C372.74908203 770.23623047 372.77550781 769.34355469 372.80273438 768.42382812 C372.82303711 767.02680664 372.82303711 767.02680664 372.84375 765.6015625 C373.22382581 745.8516974 379.21138559 729.5937222 392.6953125 715.0625 C398.90995469 709.17174795 405.9289069 704.96410047 413.28125 700.6640625 C414.27125 700.0040625 415.26125 699.3440625 416.28125 698.6640625 C416.74598069 695.91011566 416.74598069 695.91011566 416.67832661 692.60944748 C416.69046674 691.30985903 416.70260687 690.01027057 416.71511489 688.67130065 C416.7134649 687.21533533 416.71151742 685.75937033 416.70930481 684.30340576 C416.71776657 682.76739785 416.72751736 681.23139658 416.73845309 679.69540429 C416.76467724 675.45869547 416.77191465 671.22213068 416.77603734 666.98535037 C416.78362799 662.42212789 416.80829761 657.85899243 416.83052063 653.29582214 C416.88034032 642.26800442 416.90137652 631.24019898 416.92003945 620.21229208 C416.92957024 615.02287293 416.94251868 609.83346266 416.95526695 604.6440506 C416.99667097 587.39977588 417.03176336 570.15551091 417.04576588 552.91119003 C417.04713127 551.25468096 417.04713127 551.25468096 417.04852424 549.56470706 C417.04943453 548.45768041 417.05034483 547.35065377 417.0512827 546.21008086 C417.05313818 543.96671405 417.05500556 541.72334726 417.05688477 539.47998047 C417.05827467 537.8107888 417.05827467 537.8107888 417.05969264 536.10787609 C417.0758937 518.07347726 417.13614509 500.0395132 417.21518449 482.00529107 C417.29562271 463.5023616 417.33861432 444.99965158 417.34414595 426.49654508 C417.34814909 416.10257378 417.36848604 405.70919471 417.43024635 395.31539154 C417.48267586 386.46495569 417.50109156 377.61527903 417.47480337 368.76471224 C417.46241794 364.24702998 417.46633558 359.73089234 417.5136795 355.21340752 C417.55662811 351.07843122 417.55354854 346.94615351 417.51360079 342.81117073 C417.5072828 341.31447003 417.5179301 339.81758313 417.54711816 338.32115373 C417.62746325 333.92665233 417.5801268 329.88069514 416.28125 325.6640625 C413.28274803 322.70383085 410.11216916 321.30022883 406.28125 319.6640625 C405.56534708 319.11923399 404.84944417 318.57440547 404.11184722 318.01306701 C402.32831109 316.39580806 402.32831109 316.39580806 399.81811523 316.82177734 C397.20492597 317.68940346 395.05901577 318.73787437 392.69140625 320.140625 C391.83192383 320.64287598 390.97244141 321.14512695 390.08691406 321.66259766 C389.18166992 322.19933105 388.27642578 322.73606445 387.34375 323.2890625 C381.31512877 326.80558599 375.31372762 330.24655878 369.03125 333.2890625 C362.54928044 336.45432334 356.40166222 340.04826016 350.2109375 343.73828125 C344.39085365 347.20548827 338.52468293 350.59202202 332.65625 353.9765625 C331.55522949 354.61190918 330.45420898 355.24725586 329.31982422 355.90185547 C320.85706722 360.77629499 312.36356803 365.59484539 303.84130859 370.36450195 C302.52380615 371.10446411 302.52380615 371.10446411 301.1796875 371.859375 C300.42349121 372.28234863 299.66729492 372.70532227 298.88818359 373.14111328 C296.3768376 374.54836417 296.3768376 374.54836417 294.53970337 375.93814087 C289.10547888 379.76894616 285.0620497 380.31382003 278.5078125 380.046875 C277.58519623 380.03268524 276.66257996 380.01849548 275.71200562 380.00387573 C272.77567555 379.95637232 269.84166603 379.8756972 266.90625 379.7890625 C249.85108671 379.33941336 233.38355235 379.57248416 217.09375 385.3515625 C216.36091797 385.60502441 215.62808594 385.85848633 214.87304688 386.11962891 C203.12672328 390.35064045 192.59455286 396.28719777 183.28125 404.6640625 C182.64832031 405.21578125 182.01539063 405.7675 181.36328125 406.3359375 C170.20642406 416.68004351 162.66644711 432.38830247 161.90625 447.4765625 C161.87789062 448.59675781 161.84953125 449.71695312 161.8203125 450.87109375 C161.28125 453.6640625 161.28125 453.6640625 159.66796875 454.828125 C158.88035156 455.10398437 158.09273437 455.37984375 157.28125 455.6640625 C148.97027001 459.96925338 140.81942045 464.45913208 132.81884766 469.31787109 C128.85906944 471.7219856 124.87265344 474.06396479 120.84375 476.3515625 C114.21257672 480.11806892 107.6189768 483.94710063 101.03125 487.7890625 C100.02521729 488.37518311 99.01918457 488.96130371 97.98266602 489.56518555 C95.07920067 491.25976958 92.17923583 492.9601265 89.28125 494.6640625 C87.85135742 495.50275879 87.85135742 495.50275879 86.39257812 496.35839844 C85.49474609 496.88981445 84.59691406 497.42123047 83.671875 497.96875 C82.87297852 498.44038574 82.07408203 498.91202148 81.25097656 499.39794922 C79.16065643 500.64300365 79.16065643 500.64300365 77.28125 502.6640625 C77.28125 504.3140625 77.28125 505.9640625 77.28125 507.6640625 C61.44125 507.6640625 45.60125 507.6640625 29.28125 507.6640625 C29.28125 480.9340625 29.28125 454.2040625 29.28125 426.6640625 C67.56125 426.6640625 105.84125 426.6640625 145.28125 426.6640625 C145.61125 418.7440625 145.94125 410.8240625 146.28125 402.6640625 C147.28125 394.6640625 147.28125 394.6640625 149.30883789 392.69287109 C150.19821045 392.23734863 151.08758301 391.78182617 152.00390625 391.3125 C153.00478271 390.77890869 154.00565918 390.24531738 155.03686523 389.69555664 C156.12813721 389.14891357 157.21940918 388.60227051 158.34375 388.0390625 C160.64967602 386.8187437 162.95433428 385.59602675 165.2578125 384.37109375 C165.8466069 384.06302292 166.43540131 383.75495209 167.04203796 383.43754578 C172.87782733 380.38329667 178.54995341 377.0775776 184.21875 373.7265625 C186.209154 372.55907469 188.2000443 371.39241559 190.19140625 370.2265625 C191.1880127 369.64261719 192.18461914 369.05867188 193.21142578 368.45703125 C198.5145225 365.35969212 203.83519935 362.29292392 209.15625 359.2265625 C210.23640381 358.60402588 211.31655762 357.98148926 212.42944336 357.34008789 C214.61921334 356.07829424 216.80907355 354.81665716 218.99902344 353.55517578 C224.42784942 350.42726102 229.85444281 347.29547802 235.28125 344.1640625 C237.44790583 342.91404371 239.6145725 341.66404372 241.78125 340.4140625 C242.85375 339.7953125 243.92625 339.1765625 245.03125 338.5390625 C280.78125003 317.91406249 280.78125003 317.91406249 284.03295898 316.03808594 C286.19393988 314.79135994 288.35490998 313.54461523 290.51586914 312.29785156 C296.01943851 309.12260367 301.52321032 305.94770755 307.02734375 302.7734375 C324.08806159 292.93395796 341.14236787 283.08436249 358.15625 273.1640625 C359.18572754 272.56392334 360.21520508 271.96378418 361.27587891 271.34545898 C362.24444824 270.78028564 363.21301758 270.2151123 364.2109375 269.6328125 C365.06929199 269.13201172 365.92764648 268.63121094 366.81201172 268.11523438 C368.03428467 267.3969043 368.03428467 267.3969043 369.28125 266.6640625 C370.19712891 266.1786499 371.11300781 265.6932373 372.05664062 265.19311523 C374.67616707 263.77562233 374.67616707 263.77562233 374.9453125 260.23046875 C374.95856606 258.89583562 374.94462432 257.56070966 374.90625 256.2265625 C374.91914062 254.90785156 374.93203125 253.58914062 374.9453125 252.23046875 C374.11178769 247.75395019 372.92193749 247.23455397 369.28125 244.6640625 C367.40496688 243.50413866 365.50304887 242.38501047 363.58203125 241.30078125 C361.91213135 240.35319946 361.91213135 240.35319946 360.20849609 239.38647461 C359.62026062 239.05533661 359.03202515 238.72419861 358.42596436 238.38302612 C355.91438685 236.96910814 353.40832484 235.545536 350.90179443 234.12269592 C349.60508464 233.38678707 348.30808499 232.65138874 347.01080322 231.91648865 C340.70688777 228.34448421 334.42911912 224.72778722 328.15625 221.1015625 C326.01041975 219.86197383 323.86458641 218.6223905 321.71875 217.3828125 C320.65914062 216.77050781 319.59953125 216.15820312 318.5078125 215.52734375 C315.24600993 213.643712 311.98263156 211.76283929 308.71875 209.8828125 C298.26412049 203.85966511 287.82076558 197.81883805 277.40625 191.7265625 C268.13561069 186.30447551 258.82188301 180.96082238 249.49078369 175.64382935 C240.4185959 170.47319972 231.38552651 165.23894833 222.37475586 159.96191406 C213.9563803 155.03960664 205.49122692 150.20195064 197.01855469 145.37402344 C189.60255389 141.14718344 182.21146325 136.88432943 174.86938477 132.53027344 C168.04974532 128.49976551 161.16361684 124.58601938 154.28125 120.6640625 C146.75481204 116.37507793 139.23262587 112.08275788 131.78125 107.6640625 C124.51338772 103.35667037 117.18245996 99.16166842 109.84375 94.9765625 C92.37968194 85.01587908 74.921752 75.04201867 57.61645508 64.80712891 C56.42051653 64.09984152 55.22371163 63.39401614 54.02587891 62.68994141 C52.79660211 61.9671005 51.56994686 61.23979216 50.34521484 60.50927734 C43.35881992 56.40164417 40.51335091 58.95877088 33.83789062 62.46875 Z " fill="#326C6E" transform="translate(509.71875,-0.6640625)"/>
<path d="M0 0 C150.89285714 0 150.89285714 0 178 23 C178.78117188 23.58394531 179.56234375 24.16789062 180.3671875 24.76953125 C193.97237521 36.2955879 201.78146906 53.56512986 204 71 C205.45980119 100.56097417 202.90956296 126.62565469 183.6875 150.3125 C172.85372885 161.91479953 158.28906187 169.24742521 143 173 C142.37335449 173.16097168 141.74670898 173.32194336 141.10107422 173.48779297 C138.92441837 174.04571566 136.74435786 174.58779833 134.5625 175.125 C133.88268066 175.29604248 133.20286133 175.46708496 132.50244141 175.64331055 C122.43245028 178.03496326 112.22545899 178.15100903 101.921875 178.1328125 C100.10565643 178.13424759 100.10565643 178.13424759 98.25274658 178.13571167 C95.71146594 178.13638801 93.17018351 178.13457209 90.62890625 178.13037109 C86.74735644 178.12499634 82.86592135 178.13034431 78.984375 178.13671875 C76.50520808 178.13605824 74.02604123 178.13477763 71.546875 178.1328125 C69.81543243 178.13584885 69.81543243 178.13584885 68.04901123 178.13894653 C66.96388245 178.13579437 65.87875366 178.13264221 64.76074219 178.12939453 C63.81463074 178.12859894 62.86851929 178.12780334 61.89373779 178.12698364 C58.57768983 177.98146809 55.28587916 177.46941131 52 177 C52 213.3 52 249.6 52 287 C34.84 287 17.68 287 0 287 C0 192.29 0 97.58 0 0 Z " fill="#FDFEFE" transform="translate(262,383)"/>
<path d="M0 0 C2.22432007 0.01068334 4.44782389 0.00005277 6.67211914 -0.01269531 C36.29007389 -0.04144606 66.10993717 6.43235864 91.92407227 21.26074219 C90.36307336 25.17800873 88.79998853 29.09443988 87.23657227 33.01074219 C86.80151367 34.10257812 86.36645508 35.19441406 85.91821289 36.31933594 C85.0371302 38.52530594 84.15054178 40.72908464 83.25854492 42.93066406 C82.35392112 45.18808606 81.47407937 47.45556831 80.61694336 49.73144531 C79.9858667 51.36243164 79.9858667 51.36243164 79.34204102 53.02636719 C78.97232178 54.00895508 78.60260254 54.99154297 78.22167969 56.00390625 C76.92407227 58.26074219 76.92407227 58.26074219 74.95849609 59.15063477 C71.72427825 59.32567764 69.36494417 57.99625976 66.42407227 56.69824219 C60.23620425 54.07139041 53.99207329 51.92644031 47.54907227 50.01074219 C46.72987305 49.76509521 45.91067383 49.51944824 45.06665039 49.26635742 C31.7293638 45.35385308 19.39163399 44.08034023 5.48657227 44.07324219 C4.22780273 44.06099609 2.9690332 44.04875 1.67211914 44.03613281 C-11.69351793 44.01521632 -23.51374733 46.00837185 -34.28295898 54.41308594 C-41.48256457 61.83228734 -42.41119149 71.16129006 -42.46533203 80.91943359 C-42.32912668 89.31000212 -40.03601904 94.56062806 -34.82592773 101.07324219 C-26.14572383 107.97794984 -15.90758538 110.89795782 -5.51342773 114.26074219 C-3.95521767 114.77295039 -2.397273 115.28596671 -0.83959961 115.79980469 C5.8901709 118.01228116 12.63189598 120.17947186 19.40133667 122.26751709 C47.46423372 130.92759244 77.29189359 142.92552771 92.31860352 169.81542969 C98.44702191 182.9669261 100.10095363 196.38311408 100.11157227 210.76074219 C100.12381836 211.6334375 100.13606445 212.50613281 100.14868164 213.40527344 C100.1624135 219.5846103 99.37118267 225.25939813 97.92407227 231.26074219 C97.76302002 231.94007813 97.60196777 232.61941406 97.43603516 233.31933594 C92.72483071 252.0407368 81.82373766 267.23040645 65.48657227 277.63574219 C31.29579331 297.22547675 -12.09015123 300.67147715 -50.15014648 291.31152344 C-53.49401181 290.38083265 -56.78025394 289.34831454 -60.07592773 288.26074219 C-61.16905273 287.94105469 -62.26217773 287.62136719 -63.38842773 287.29199219 C-75.94963858 283.61843052 -87.47353196 278.21640984 -99.07592773 272.26074219 C-98.40648866 266.39518073 -96.97919782 260.9212044 -95.32592773 255.26074219 C-95.06150879 254.34462158 -94.79708984 253.42850098 -94.5246582 252.48461914 C-92.2463118 244.67129536 -89.74498713 236.94905044 -87.07592773 229.26074219 C-86.55909424 229.50195801 -86.04226074 229.74317383 -85.50976562 229.99169922 C-60.94190804 241.40082023 -36.50047881 250.67671852 -9.08374023 250.52148438 C-6.81524346 250.51069135 -4.54752676 250.52147936 -2.27905273 250.53417969 C-0.81030102 250.53285898 0.65845022 250.53029841 2.12719727 250.52636719 C4.08641113 250.5229834 4.08641113 250.5229834 6.08520508 250.51953125 C17.58929677 249.74400739 28.63968254 245.34866418 36.92407227 237.26074219 C44.91471794 227.00932847 46.13066139 214.8850018 44.92407227 202.26074219 C42.66728832 192.66941042 37.10509259 186.40487964 29.07250977 181.04589844 C17.8153808 174.66313425 5.22059307 171.39531935 -7.18359375 168.02416992 C-53.84936272 155.2535618 -53.84936272 155.2535618 -72.07592773 140.26074219 C-72.87514648 139.62394531 -73.67436523 138.98714844 -74.49780273 138.33105469 C-87.73715214 127.26864529 -95.99743854 110.51360148 -97.90161133 93.42089844 C-99.66224038 71.60290703 -97.0392796 50.32996425 -83.04467773 32.70214844 C-71.10166366 18.88778181 -56.25628879 10.10592493 -38.88842773 4.82324219 C-38.11837402 4.58847168 -37.34832031 4.35370117 -36.55493164 4.11181641 C-24.52223857 0.7116557 -12.42572741 -0.07060844 0 0 Z " fill="#FDFEFE" transform="translate(769.075927734375,378.7392578125)"/>
<path d="M0 0 C55.77 0 111.54 0 169 0 C169 14.00396769 168.5829928 28.00817272 168 42 C129.72 42 91.44 42 52 42 C52 68.73 52 95.46 52 123 C87.97 123 123.94 123 161 123 C161 136.53 161 150.06 161 164 C125.03 164 89.06 164 52 164 C52 204.26 52 244.52 52 286 C34.84 286 17.68 286 0 286 C0 191.62 0 97.24 0 0 Z " fill="#FEFEFE" transform="translate(487,384)"/>
<path d="M0 0 C17.49 0 34.98 0 53 0 C53 94.38 53 188.76 53 286 C35.51 286 18.02 286 0 286 C0 191.62 0 97.24 0 0 Z " fill="#FEFEFE" transform="translate(167,384)"/>
<path d="M0 0 C9.136875 -0.061875 18.27375 -0.12375 27.6875 -0.1875 C30.54494873 -0.21481201 33.40239746 -0.24212402 36.34643555 -0.27026367 C38.65152567 -0.27903849 40.9566205 -0.28668006 43.26171875 -0.29296875 C44.4259436 -0.30831665 45.59016846 -0.32366455 46.78967285 -0.33947754 C62.70788866 -0.34447123 78.00134572 3.86468334 89.9453125 14.77734375 C101.39502328 26.89619347 101.54288563 40.58602616 101.13183594 56.28710938 C100.57064585 67.83515427 95.71189974 79.54534191 87.09375 87.4453125 C73.44794283 97.5778335 57.21199903 100.17375446 40.72265625 100.09765625 C39.68782104 100.09664917 38.65298584 100.09564209 37.58679199 100.09460449 C33.74534995 100.08939833 29.90392379 100.07543717 26.0625 100.0625 C13.1615625 100.0315625 13.1615625 100.0315625 0 100 C0 67 0 34 0 0 Z " fill="#449294" transform="translate(314,423)"/>
<path d="M0 0 C7.20729162 -0.07006935 14.41450763 -0.12309604 21.62207317 -0.15543652 C24.97030543 -0.17097274 28.31812527 -0.19365263 31.66625977 -0.22631836 C35.531474 -0.26306131 39.3963606 -0.27980858 43.26171875 -0.29296875 C44.44142746 -0.30845261 45.62113617 -0.32393646 46.83659363 -0.33988953 C62.7362718 -0.34304928 78.0171274 3.87910234 89.9453125 14.77734375 C96.76477297 21.99534412 101.12046268 31.27361183 101.1328125 41.24609375 C101.13410156 42.24833984 101.13539063 43.25058594 101.13671875 44.28320312 C101.13285156 45.32412109 101.12898438 46.36503906 101.125 47.4375 C101.12886719 48.47455078 101.13273437 49.51160156 101.13671875 50.58007812 C101.13542969 51.58361328 101.13414062 52.58714844 101.1328125 53.62109375 C101.13168457 54.5330249 101.13055664 55.44495605 101.12939453 56.38452148 C100.999311 59.01392693 100.58261251 61.43609998 100 64 C93.81836396 62.37161601 88.68904157 59.05758317 83.25 55.8125 C81.08894367 54.53707902 78.927471 53.26236327 76.765625 51.98828125 C75.64994141 51.32908691 74.53425781 50.66989258 73.38476562 49.99072266 C67.94407966 46.790827 62.47178087 43.64632549 57 40.5 C47.51408018 35.03686401 38.04798119 29.54089592 28.59741211 24.0168457 C23.84226843 21.23812469 19.08328247 18.46664563 14.3125 15.71484375 C13.4248999 15.20276367 12.5372998 14.69068359 11.62280273 14.16308594 C9.95644817 13.20271147 8.28933186 12.2436571 6.62133789 11.28613281 C1.10923146 8.10923146 1.10923146 8.10923146 0 7 C-0.04092937 4.66702567 -0.04241723 2.33294775 0 0 Z " fill="#346D6F" transform="translate(314,423)"/>
<path d="M0 0 C20.13 0 40.26 0 61 0 C58.05640248 2.94359752 55.53764604 4.55075286 51.93359375 6.58203125 C51.34006607 6.91869308 50.74653839 7.25535492 50.13502502 7.60221863 C48.23842207 8.67693804 46.33816767 9.74498849 44.4375 10.8125 C42.56829818 11.8673002 40.69990711 12.92351055 38.83218384 13.98092651 C37.61249852 14.67085505 36.39177972 15.35895987 35.17001343 16.04519653 C30.73935476 18.54351652 26.42695943 21.19507549 22.16821289 23.9753418 C19.5847412 25.1962438 17.8268291 25.26125419 15 25 C12.97265625 24.01171875 12.97265625 24.01171875 11.0625 22.6875 C7.73992413 20.41559494 4.70994064 18.85497032 1 17 C1 38.12 1 59.24 1 81 C0.67 81 0.34 81 0 81 C0 54.27 0 27.54 0 0 Z " fill="#499395" transform="translate(539,426)"/>
</svg>
