<svg xmlns="http://www.w3.org/2000/svg"  viewBox="0 0 48 48" width="50px" height="50px" baseProfile="basic"><path fill="#babffc" d="M38.844,22.463l-14-22c-0.367-0.576-1.32-0.576-1.688,0l-14,22c-0.146,0.23-0.192,0.512-0.127,0.777	s0.237,0.492,0.475,0.628l14,8C23.657,31.956,23.829,32,24,32s0.343-0.044,0.496-0.132l14-8c0.237-0.136,0.409-0.362,0.475-0.628	S38.99,22.693,38.844,22.463z"/><path fill="#324561" d="M24,32c-0.553,0-1-0.447-1-1V1c0-0.553,0.447-1,1-1s1,0.447,1,1v30C25,31.553,24.553,32,24,32z"/><path fill="#babffc" d="M38.747,27.335c-0.315-0.354-0.834-0.437-1.243-0.203L24,34.849l-13.504-7.717	c-0.408-0.232-0.928-0.149-1.243,0.203c-0.314,0.353-0.338,0.878-0.058,1.258l14,19C23.384,47.849,23.683,48,24,48	s0.616-0.151,0.805-0.407l14-19C39.085,28.213,39.062,27.688,38.747,27.335z"/><path fill="#324561" d="M24,48c-0.553,0-1-0.447-1-1V35c0-0.553,0.447-1,1-1s1,0.447,1,1v12C25,47.553,24.553,48,24,48z"/><path fill="#324561" d="M38.5,24c-0.128,0-0.257-0.024-0.383-0.076L24,18.082L9.883,23.924	c-0.513,0.21-1.095-0.031-1.307-0.541c-0.211-0.511,0.031-1.096,0.541-1.307l14.5-6c0.246-0.102,0.52-0.102,0.766,0l14.5,6	c0.51,0.211,0.752,0.796,0.541,1.307C39.265,23.768,38.893,24,38.5,24z"/></svg>