<?xml version="1.0" encoding="iso-8859-1" ?>
<!-- Uploaded to: SVG Repo, www.svgrepo.com, Generator: SVG Repo Mixer Tools -->
<!DOCTYPE svg PUBLIC "-//W3C//DTD SVG 1.1//EN" "http://www.w3.org/Graphics/SVG/1.1/DTD/svg11.dtd">
<svg
  fill="#212529BF"
  height="15px"
  width="16px"
  version="1.1"
  id="Capa_1"
  xmlns="http://www.w3.org/2000/svg"
  xmlns:xlink="http://www.w3.org/1999/xlink"
  viewBox="0 0 297 297"
  xml:space="preserve"
>
<path
    d="M250.929,276.619h-17.463v-31.301c0-31.668-17.379-60.777-48.936-81.967c-3.924-2.635-6.363-8.324-6.363-14.852
	s2.439-12.215,6.365-14.852c31.555-21.188,48.934-50.297,48.936-81.965V20.381h17.461c5.627,0,10.189-4.562,10.189-10.191
	C261.118,4.561,256.556,0,250.929,0H46.071c-5.627,0-10.19,4.561-10.19,10.189c0,5.629,4.563,10.191,10.19,10.191h17.463v31.303
	c0,31.668,17.377,60.777,48.936,81.965c3.924,2.637,6.363,8.324,6.363,14.852c0,6.529-2.439,12.217-6.365,14.854
	c-31.557,21.188-48.934,50.297-48.934,81.965v31.301H46.071c-5.627,0-10.19,4.563-10.19,10.191c0,5.629,4.563,10.19,10.19,10.19
	h204.857c5.627,0,10.189-4.56,10.189-10.19C261.118,281.182,256.556,276.619,250.929,276.619z M83.915,245.318
	c0-33.275,25.006-55.035,39.914-65.043c9.633-6.467,15.385-18.346,15.385-31.775c0-13.428-5.752-25.307-15.385-31.773
	c-14.908-10.008-39.914-31.768-39.914-65.043V20.381h129.17l-0.002,31.303c0,33.275-25.006,55.035-39.912,65.041
	c-9.635,6.469-15.387,18.348-15.387,31.775c0,13.43,5.752,25.307,15.385,31.775c14.908,10.008,39.914,31.768,39.916,65.043v31.301
	H83.915V245.318z"
  />
</svg>
